# xmcd
#
# Track frame offsets: 
#        150
#        18756
#        34780
#        50598
#        69898
#        91470
#        107164
#        121737
#        138732
#        156327
#        173700
#        197177
#        215108
#
# Disc length: 3100 seconds
#
# Revision: 1
# Processed by: cddbd v1.5.2PL0 Copyright (c) Steve Scherf et al.
# Submitted via: ExactAudioCopy v0.99pb4
#
DISCID=b70c1a0d
DTITLE=James Morrison - Undiscovered
DYEAR=2007
DGENRE=Pop
TTITLE0=Under The Influence
TTITLE1=You Give Me Something
TTITLE2=Wonderful World
TTITLE3=The Pieces Don't Fit Anymore
TTITLE4=One Last Chance
TTITLE5=Undiscovered
TTITLE6=The Letter
TTITLE7=Call The Police
TTITLE8=This Boy
TTITLE9=Better Man
TTITLE10=The Last Goodbye
TTITLE11=Is Anybody Home?
TTITLE12=Burns Like Summer Sun
EXTD=YEAR: 2007
EXTT0=
EXTT1=
EXTT2=
EXTT3=
EXTT4=
EXTT5=
EXTT6=
EXTT7=
EXTT8=
EXTT9=
EXTT10=
EXTT11=
EXTT12=
PLAYORDER=
